
<svg xmlns="http://www.w3.org/2000/svg" viewBox="0 0 500 500" fill="none">
  <!-- Background Frame -->
  <rect x="10" y="10" width="480" height="480" rx="20" stroke="black" stroke-width="20" fill="white" />
  
  <!-- Decorative Corner Elements -->
  <path d="M40 40 C80 50, 100 80, 110 110" stroke="black" stroke-width="12" fill="none" />
  <path d="M460 40 C420 50, 400 80, 390 110" stroke="black" stroke-width="12" fill="none" />
  <path d="M40 460 C80 450, 100 420, 110 390" stroke="black" stroke-width="12" fill="none" />
  <path d="M460 460 C420 450, 400 420, 390 390" stroke="black" stroke-width="12" fill="none" />
  
  <!-- Decorative Dots -->
  <circle cx="60" cy="200" r="10" fill="black" />
  <circle cx="60" cy="300" r="10" fill="black" />
  <circle cx="440" cy="200" r="10" fill="black" />
  <circle cx="440" cy="300" r="10" fill="black" />
  
  <!-- Moon Shape -->
  <path d="M250 80 C150 80, 100 200, 150 320 C200 440, 350 430, 380 320 C400 250, 380 80, 250 80" fill="black" />
  
  <!-- Owl Body Circle -->
  <circle cx="330" cy="200" r="100" fill="white" stroke="black" stroke-width="10" />
  
  <!-- Owl Eyes -->
  <circle cx="290" cy="170" r="25" fill="#6E59A5" stroke="black" stroke-width="5" />
  <circle cx="370" cy="170" r="25" fill="#6E59A5" stroke="black" stroke-width="5" />
  
  <!-- Owl Eye Pupils -->
  <circle cx="290" cy="170" r="12" fill="#F97316" />
  <circle cx="370" cy="170" r="12" fill="#F97316" />
  
  <!-- Owl Eyebrows -->
  <path d="M260 140 L290 150 L320 140" stroke="#ea384c" stroke-width="10" fill="none" />
  <path d="M340 140 L370 150 L400 140" stroke="#ea384c" stroke-width="10" fill="none" />
  
  <!-- Owl Beak -->
  <path d="M330 200 L300 250 L360 250 L330 200" fill="#ea384c" />
  
  <!-- Owl Chest Feathers -->
  <path d="M310 270 L320 280 L330 270 L340 280 L350 270 L360 280 L370 270" stroke="black" stroke-width="3" />
  <path d="M310 290 L320 300 L330 290 L340 300 L350 290 L360 300 L370 290" stroke="black" stroke-width="3" />
  <path d="M310 310 L320 320 L330 310 L340 320 L350 310 L360 320 L370 310" stroke="black" stroke-width="3" />
  
  <!-- OWLSTIN Text -->
  <text x="180" y="380" font-family="Arial, sans-serif" font-size="60" font-weight="bold" fill="#F97316" transform="rotate(-10, 180, 380)">OWLSTIN</text>
</svg>
